HIERARCHY
ROOT Hips
{
	OFFSET -0.001795 -0.223333 0.028219
	CHANNELS 6 Xposition Yposition Zposition Zrotation Yrotation Xrotation 
	JOINT LeftUpLeg
	{
		OFFSET 0.069520 -0.091406 -0.006815
		CHANNELS 3 Zrotation Yrotation Xrotation
		JOINT LeftLeg
		{
			OFFSET 0.034277 -0.375199 -0.004496
			CHANNELS 3 Zrotation Yrotation Xrotation
			JOINT LeftFoot
			{
				OFFSET -0.013596 -0.397961 -0.043693
				CHANNELS 3 Zrotation Yrotation Xrotation
				JOINT LeftToe
				{
					OFFSET 0.026358 -0.055791 0.119288
					CHANNELS 3 Zrotation Yrotation Xrotation
					End Site
					{
						OFFSET 0.000000 0.000000 0.000000
					}
				}
			}
		}
	}
	JOINT RightUpLeg
	{
		OFFSET -0.067670 -0.090522 -0.004320
		CHANNELS 3 Zrotation Yrotation Xrotation
		JOINT RightLeg
		{
			OFFSET -0.038290 -0.382569 -0.008850
			CHANNELS 3 Zrotation Yrotation Xrotation
			JOINT RightFoot
			{
				OFFSET 0.015774 -0.398415 -0.042312
				CHANNELS 3 Zrotation Yrotation Xrotation
				JOINT RightToe
				{
					OFFSET -0.025372 -0.048144 0.123348
					CHANNELS 3 Zrotation Yrotation Xrotation
					End Site
					{
						OFFSET 0.000000 0.000000 0.000000
					}
				}
			}
		}
	}
	JOINT Spine
	{
		OFFSET -0.002533 0.108963 -0.026696
		CHANNELS 3 Zrotation Yrotation Xrotation
		JOINT Spine1
		{
			OFFSET 0.005487 0.135180 0.001092
			CHANNELS 3 Zrotation Yrotation Xrotation
			JOINT Spine2
			{
				OFFSET 0.001457 0.052922 0.025425
				CHANNELS 3 Zrotation Yrotation Xrotation
				JOINT Neck
				{
					OFFSET -0.002778 0.213870 -0.042857
					CHANNELS 3 Zrotation Yrotation Xrotation
					JOINT Head
					{
						OFFSET 0.005152 0.064970 0.051349
						CHANNELS 3 Zrotation Yrotation Xrotation
						End Site
						{
							OFFSET 0.000000 0.000000 0.000000
						}
					}
				}
				JOINT LeftShoulder
				{
					OFFSET 0.078845 0.121749 -0.034090
					CHANNELS 3 Zrotation Yrotation Xrotation
					JOINT LeftArm
					{
						OFFSET 0.090977 0.030469 -0.008868
						CHANNELS 3 Zrotation Yrotation Xrotation
						JOINT LeftForeArm
						{
							OFFSET 0.259612 -0.012772 -0.027456
							CHANNELS 3 Zrotation Yrotation Xrotation
							JOINT LeftHand
							{
								OFFSET 0.249234 0.008986 -0.001171
								CHANNELS 3 Zrotation Yrotation Xrotation
								End Site
								{
									OFFSET 0.000000 0.000000 0.000000
								}
							}
						}
					}
				}
				JOINT RightShoulder
				{
					OFFSET -0.081759 0.118833 -0.038615
					CHANNELS 3 Zrotation Yrotation Xrotation
					JOINT RightArm
					{
						OFFSET -0.096012 0.032551 -0.009143
						CHANNELS 3 Zrotation Yrotation Xrotation
						JOINT RightForeArm
						{
							OFFSET -0.253742 -0.013329 -0.021401
							CHANNELS 3 Zrotation Yrotation Xrotation
							JOINT RightHand
							{
								OFFSET -0.255298 0.007772 -0.005559
								CHANNELS 3 Zrotation Yrotation Xrotation
								End Site
								{
									OFFSET 0.000000 0.000000 0.000000
								}
							}
						}
					}
				}
			}
		}
	}
}
MOTION
Frames: 11
Frame Time: 0.050000
-0.545573 0.952052 0.731735 179.355181 55.912978 174.107064 4.317783 -2.193793 -10.465484 -20.123939 -11.165746 27.174407 32.550919 15.546033 13.967746 0.000000 0.000000 0.000000 5.333300 -1.456484 3.641357 -0.048815 -3.001672 0.619142 4.063763 -5.641307 9.618044 0.000000 0.000000 0.000000 8.147137 -2.756862 11.340330 -6.372800 0.615952 -25.350968 1.869037 16.902674 30.893255 12.414490 4.974426 -28.311388 0.000000 0.000000 0.000000 -12.019159 -17.622705 -38.448863 -46.727958 31.380294 -15.337973 -27.499039 -19.241382 0.094600 0.000000 0.000000 0.000000 26.120187 -13.856011 29.815275 39.451722 47.698281 10.303649 -2.590269 24.292763 -1.047390 0.000000 0.000000 0.000000 
-0.528845 0.952405 0.721228 178.578422 58.080746 173.645488 3.024881 -1.928733 -11.583266 -12.291352 -6.631770 13.857436 27.994939 9.667862 29.387439 0.000000 0.000000 0.000000 4.495791 -1.881605 5.047075 0.385304 -2.890859 0.038713 5.429332 -3.725234 9.123283 0.000000 0.000000 0.000000 7.804290 -2.815186 11.886705 -7.222240 0.410095 -25.842817 3.226796 17.455054 31.334242 11.783578 5.580348 -28.712702 0.000000 0.000000 0.000000 -12.076269 -17.821660 -36.759828 -47.504360 29.618610 -15.080719 -28.024143 -19.439212 0.189506 0.000000 0.000000 0.000000 24.700607 -12.769790 28.249822 42.166233 47.337763 12.439175 -3.263473 25.625101 -1.044502 0.000000 0.000000 0.000000 
-0.511875 0.952268 0.710876 178.369543 59.779556 173.336444 1.599873 -1.615019 -11.717623 -9.448298 -5.078157 7.710440 37.151634 -8.464783 60.379682 0.000000 0.000000 0.000000 4.339546 -2.220042 6.507532 0.136563 -2.638923 -0.035072 6.482528 -2.446361 8.607447 0.000000 0.000000 0.000000 7.544026 -2.987996 12.586207 -7.063384 0.510221 -26.035718 3.092607 18.367986 31.694457 12.171505 5.921171 -29.353360 0.000000 0.000000 0.000000 -12.071860 -17.913884 -35.699681 -47.742345 28.409221 -14.712956 -28.701103 -20.188851 0.291141 0.000000 0.000000 0.000000 24.552170 -12.458142 27.958954 44.016113 48.169600 13.677984 -4.187468 26.026122 -1.160642 0.000000 0.000000 0.000000 
-0.494084 0.949716 0.700064 177.635817 62.023700 172.653579 0.278435 -1.348268 -11.587508 -9.271739 -4.846993 7.227530 38.677386 -27.377233 76.971907 0.000000 0.000000 0.000000 4.064981 -2.556717 7.778527 -0.565884 -2.216932 0.141398 8.022470 -1.002589 7.147134 0.000000 0.000000 0.000000 6.789033 -2.758374 12.766509 -7.659317 0.365371 -26.637895 4.452158 19.211617 32.235705 12.989729 6.369044 -30.076919 0.000000 0.000000 0.000000 -12.859130 -19.170055 -35.502823 -47.249072 27.483163 -13.283671 -27.704198 -20.286734 0.382622 0.000000 0.000000 0.000000 24.832756 -12.262278 27.911435 43.788713 48.380536 13.312591 -2.558901 26.117783 -0.852207 0.000000 0.000000 0.000000 
-0.475787 0.946593 0.688699 177.273268 63.669463 171.643569 -1.463909 -1.073115 -11.250981 -6.517933 -4.094568 10.660916 -4.502066 2.968207 18.208896 0.000000 0.000000 0.000000 3.659777 -3.062873 9.291434 -0.986692 -2.205441 1.262203 9.703820 0.431081 5.578690 0.000000 0.000000 0.000000 6.062770 -2.783035 13.399280 -7.147710 0.507218 -26.968315 4.266737 20.173020 33.541790 14.001464 6.403906 -30.512497 0.000000 0.000000 0.000000 -12.898470 -20.529832 -34.793976 -48.312160 25.822901 -12.714780 -25.239869 -20.641445 0.136245 0.000000 0.000000 0.000000 25.869319 -12.693061 28.642730 43.905981 50.308515 13.430531 -3.383283 26.345426 -1.070082 0.000000 0.000000 0.000000 
-0.457439 0.943093 0.676604 176.980649 66.285853 170.967804 -2.926734 -0.894049 -10.871755 -4.062249 -3.894644 13.550048 -20.925796 -8.431451 20.689359 0.000000 0.000000 0.000000 3.474101 -3.289359 10.167668 -2.002858 -2.009283 2.902143 11.276225 2.533059 4.149810 0.000000 0.000000 0.000000 5.198164 -2.330049 12.832650 -7.292646 0.802125 -25.795943 4.054993 19.519458 32.885082 14.494992 6.785958 -31.135616 0.000000 0.000000 0.000000 -13.148430 -19.839744 -32.677338 -49.272484 23.371643 -12.244717 -24.282403 -20.955129 0.043741 0.000000 0.000000 0.000000 26.957229 -11.480120 29.096884 43.604620 51.221183 12.589778 -2.341015 23.542183 -1.034266 0.000000 0.000000 0.000000 
-0.439877 0.939476 0.664149 177.200143 70.393114 171.755724 -2.953737 -0.932635 -11.016899 -3.766474 -4.067338 15.376546 -17.238763 -8.329287 17.056496 0.000000 0.000000 0.000000 2.407895 -2.961745 9.150580 -1.634632 -2.821069 5.822993 13.595588 6.760315 3.545422 0.000000 0.000000 0.000000 4.795384 -1.800571 11.483861 -7.170512 1.031446 -25.557892 4.696673 20.101095 34.077789 14.089601 7.079615 -31.228245 0.000000 0.000000 0.000000 -13.358182 -20.549599 -30.818257 -49.363056 21.342132 -11.369284 -23.010010 -21.405538 -0.060779 0.000000 0.000000 0.000000 26.981562 -10.730886 28.503131 45.200055 49.827072 12.470232 -3.430972 24.063361 -1.191329 0.000000 0.000000 0.000000 
-0.424259 0.939982 0.652335 175.887705 74.006342 170.746591 -2.949197 -0.768789 -10.127192 -4.604939 -3.988340 15.667445 -14.896743 -6.762858 15.502325 0.000000 0.000000 0.000000 1.757525 -2.449660 7.466606 -2.949847 -3.866450 10.607102 14.595955 9.833840 3.368800 0.000000 0.000000 0.000000 4.123515 -1.457223 10.780071 -7.151017 1.362625 -24.525122 3.393379 20.344256 32.527761 15.057589 6.813818 -31.466777 0.000000 0.000000 0.000000 -13.412023 -19.656095 -27.778491 -49.406622 16.903716 -9.920586 -22.669768 -21.425660 -0.003891 0.000000 0.000000 0.000000 28.356063 -10.411561 27.748196 44.669167 48.779631 10.645475 -2.077473 23.388119 -0.881212 0.000000 0.000000 0.000000 
-0.411829 0.941659 0.642138 175.378527 78.028411 170.351686 -1.932780 -0.599599 -8.722455 -6.517857 -3.707719 14.802665 -12.734078 -4.486061 14.709895 0.000000 0.000000 0.000000 0.700742 -1.987348 4.996347 -3.382558 -6.135827 16.319572 14.892860 13.024272 5.007698 0.000000 0.000000 0.000000 3.895722 -1.293626 10.324704 -6.818462 1.627621 -24.378507 1.935980 20.280487 32.062350 15.680298 6.914169 -33.248360 0.000000 0.000000 0.000000 -13.439713 -19.553960 -24.568690 -48.810664 12.887839 -8.323889 -21.751133 -21.727619 0.044846 0.000000 0.000000 0.000000 28.678708 -9.090922 27.073996 45.090408 48.238069 10.201498 -2.497030 22.829942 -0.864957 0.000000 0.000000 0.000000 
-0.403441 0.945958 0.634967 175.209063 81.171354 169.409648 -1.369438 -0.411559 -6.669778 -7.394869 -3.385503 13.869978 -11.724849 -2.408101 15.113894 0.000000 0.000000 0.000000 -0.723551 -1.916835 2.729783 -4.132329 -9.577239 23.214440 15.657334 16.430805 8.227865 0.000000 0.000000 0.000000 3.111507 -1.468028 11.621412 -6.875957 1.707753 -24.944116 1.657920 19.079216 32.586977 16.844522 6.683569 -34.632407 0.000000 0.000000 0.000000 -13.981363 -19.601316 -22.824785 -47.836463 8.722205 -5.953556 -20.717739 -22.227959 0.171233 0.000000 0.000000 0.000000 28.821474 -8.613933 25.548483 46.093605 47.734466 10.142314 -2.541368 23.598707 -0.687384 0.000000 0.000000 0.000000 
-0.399356 0.949489 0.631063 -174.468605 84.839867 179.533804 0.145552 -0.464190 -5.152600 -7.665498 -2.859225 12.185854 -10.124248 -0.599202 14.975149 0.000000 0.000000 0.000000 -2.291400 -2.089357 1.048040 -3.743576 -11.693688 27.096425 20.882737 22.332898 13.499325 0.000000 0.000000 0.000000 3.114385 -1.563407 12.009234 -5.781507 2.056098 -24.289712 0.476207 18.522345 31.169396 16.141864 6.465691 -34.356377 0.000000 0.000000 0.000000 -13.569126 -21.179877 -19.286314 -47.782486 4.676975 -4.342737 -19.815447 -22.719079 0.104574 0.000000 0.000000 0.000000 28.429503 -7.850490 23.774895 46.852303 46.432656 10.014804 -1.165924 24.702271 -0.180719 0.000000 0.000000 0.000000 
